<svg xmlns="http://www.w3.org/2000/svg" width="20" height="20" fill="none"><path fill="none" d="M0 0h20v20H0z"/><path fill="none" d="M-565-1442h8178v4141H-565v-4141Z" opacity=".1"/><g clip-path="url(#a)"><path fill="none" fill-rule="evenodd" d="M-20-69h60v800h-60V-69Z" clip-rule="evenodd"/></g><path fill="currentColor" fill-rule="evenodd" d="M17.23 10c0 .33-.03.65-.07.97l2.11 1.66c.19.15.24.42.12.64l-2 3.46c-.12.22-.39.3-.61.22l-2.49-1.01c-.52.4-1.06.73-1.69.99l-.37 2.65c-.04.24-.25.42-.5.42h-4c-.25 0-.46-.18-.5-.42l-.37-2.65c-.63-.25-1.17-.59-1.69-.99l-2.49 1.01c-.22.08-.49 0-.61-.22l-2-3.46a.493.493 0 0 1 .12-.64l2.11-1.66a7.77 7.77 0 0 1-.07-.97c0-.33.03-.66.07-1L.19 7.37a.493.493 0 0 1-.12-.64l2-3.46c.12-.22.39-.31.61-.22l2.49 1c.52-.39 1.06-.73 1.69-.98L7.23.42c.04-.24.25-.42.5-.42h4c.25 0 .46.18.5.42l.37 2.65c.63.25 1.17.59 1.69.98l2.49-1c.22-.09.49 0 .61.22l2 3.46c.12.22.07.49-.12.64L17.16 9c.04.34.07.67.07 1Zm-11 0a3.5 3.5 0 1 0 7 0 3.5 3.5 0 0 0-7 0Z" clip-rule="evenodd"/><defs><clipPath id="a"><path fill="#fff" d="M-20-69h1214v800H-20z"/></clipPath></defs></svg>